<?xml version="1.0" encoding="utf-8"?>
<!-- Generator: Adobe Illustrator 28.0.0, SVG Export Plug-In . SVG Version: 6.00 Build 0)  -->
<svg version="1.1" id="Layer_1" xmlns="http://www.w3.org/2000/svg" xmlns:xlink="http://www.w3.org/1999/xlink" x="0px" y="0px"
	 viewBox="0 0 1186 284.5" style="enable-background:new 0 0 1186 284.5;" xml:space="preserve">
<style type="text/css">
	.st0{fill:#883C95;}
	.st1{fill:#D61868;}
	.st2{fill:#F79832;}
	.st3{fill:#8EC63E;}
	.st4{fill:url(#SVGID_1_);}
	.st5{fill:#4A508F;}
	.st6{fill:url(#SVGID_00000157998710776344079240000017682006703924112794_);}
	.st7{fill:#FFFFFF;}
</style>
<g>
	<polygon class="st2" points="823.9,184.7 834.4,205.8 858.1,205.8 847.4,184.7 	"/>
	<polygon class="st1" points="119.1,82.2 119.1,78.7 98,78.7 98,82.2 98,177.1 119.1,155.8 	"/>
	<polygon class="st1" points="98,205.8 182.7,205.8 182.7,184.5 119.1,184.5 	"/>
	<path class="st1" d="M261.7,78.7c-17.6,0-32.6,6.4-44.8,18.8c-12.4,12.4-18.8,27.3-18.8,44.8c0,17.6,6.4,32.4,18.8,44.8
		c12.4,12.4,27.2,18.8,44.8,18.8c17.6,0,32.4-6.4,44.8-18.8c12.6-12.2,18.9-27.2,18.9-44.8c0-17.5-6.4-32.4-18.9-44.8
		C294.1,85,279.4,78.7,261.7,78.7z M291.6,172.3c-8.3,8.3-18.3,12.2-29.9,12.2c-11.6,0-21.8-4-30-12.2c-8.3-8.3-12.2-18.4-12.2-30
		s4-21.6,12.2-29.9c8.4-8.4,18.4-12.4,30-12.4c11.6,0,21.6,4.1,29.9,12.4c8.3,8.3,12.4,18.3,12.4,29.9S300,163.9,291.6,172.3z"/>
	<polygon class="st1" points="546.1,78.7 491.1,133.5 482.2,142.4 491.1,151.1 546.1,205.8 576,205.8 512.4,142.2 576,78.7 	"/>
	<path class="st1" d="M670.5,78.7c-8.7,0-17,1.7-24.6,5.1c-7.8,3.3-14.5,7.8-20.3,13.7c-5.7,5.7-10.3,12.4-13.7,20
		c-3.3,7.8-5.1,16.1-5.1,24.8c0,8.6,1.7,16.7,5.1,24.5c3.3,7.8,7.9,14.5,13.7,20.3c5.9,5.7,12.6,10.3,20.3,13.7
		c7.6,3.3,15.9,5.1,24.6,5.1c8.7,0,17-1.6,24.6-4.9l-24.6-16.4c-5.9,0-11.3-1.1-16.5-3.2c-5.1-2.2-9.5-5.2-13.4-9.2
		c-4-3.8-7-8.3-9.2-13.4c-2.2-5.2-3.3-10.7-3.3-16.5c0-5.9,1.1-11.3,3.3-16.5c2.2-5.1,5.2-9.5,9.1-13.4c3.8-4,8.3-7,13.5-9.2
		c5.1-2.1,10.7-3.2,16.5-3.2c11.4,0,21.5,4,29.9,12.2l15.1-14.8c-5.9-5.9-12.7-10.5-20.3-13.8C687.5,80.2,679.3,78.7,670.5,78.7z"/>
	<polygon class="st1" points="794.5,78.7 730.9,205.8 754.4,205.8 765.2,184.5 775.7,163.5 794.5,126.2 813.1,163.5 836.9,163.5 	
		"/>
	<path class="st1" d="M954.5,144.9c5.1-7.2,7.5-15.1,7.5-24c0-11.6-4.1-21.5-12.4-29.9c-8.3-8.3-18.3-12.4-29.9-12.4h-55.8l11,18.9
		l1.3,2.4h43.5c5.7,0,10.7,2.1,14.8,6.2c4.3,4.1,6.4,9.1,6.4,14.8c0,5.9-2.1,11-6.4,15.1c-4.1,4.1-9.1,6.2-14.8,6.2l-18.9-0.2
		l36.9,63.7h24.3l-26.1-45.6C943.3,157.2,949.5,152.1,954.5,144.9z"/>
	<path class="st1" d="M1083.1,117.8c-3.5-7.8-7.9-14.5-13.8-20.3c-5.7-5.7-12.6-10.3-20.2-13.7c-7.8-3.3-15.9-5.1-24.6-5.1h-42.3
		l21.1,21.3h21.1c5.7,0,11.3,1.1,16.4,3.2c5.1,2.2,9.7,5.4,13.5,9.2c4,4,7,8.4,9.2,13.5c2.2,5.2,3.3,10.7,3.3,16.4
		c0,5.7-1.1,11.1-3.3,16.4c-2.2,5.1-5.2,9.5-9.1,13.5c-3.8,4-8.4,7-13.5,9.2c-5.1,2.1-10.7,3.2-16.5,3.2h-21.1l-21.1,21.3h42.3
		c8.7,0,17-1.7,24.6-5.1c7.8-3.3,14.6-7.9,20.3-13.7c5.7-5.9,10.2-12.6,13.7-20.3c3.3-7.6,4.9-15.7,4.9-24.5
		C1088,133.5,1086.4,125.4,1083.1,117.8z"/>
	<g>
		<path class="st1" d="M403,78.6c-17.7,0-32.6,6.4-44.9,18.8c-9,9-14.8,19.4-17.3,31.2c4.6,3.4,12.1,4.9,20.6,5.4
			c1.5-8.2,5.3-15.4,11.5-21.6c8.4-8.4,18.5-12.4,30.1-12.4c11.6,0,21.6,4.1,29.9,12.4c8.3,8.3,12.4,18.3,12.4,29.9
			s-4,21.6-12.4,30.1c-7.1,7.1-15.6,11-25.2,12c0.5,8.7,3.5,14.3,6.1,17.4l2.7,2.7c11.8-2.5,22.2-8.3,31.3-17.4
			c12.6-12.2,18.9-27.2,18.9-44.9c0-17.5-6.4-32.4-18.9-44.9C435.5,85,420.7,78.6,403,78.6z"/>
		<g>
			<path class="st2" d="M416.5,204.5l-75.7-75.9c4.6,3.4,12.1,4.9,20.6,5.4c18.9,1.1,42.1-2.5,46.2,0.6c6.1,4.6-0.4,32.4,0,48.5
				c0,0.5,0.1,0.8,0.1,1.3C408.3,193,414,201.3,416.5,204.5L396,184l-34.8-34.7"/>
		</g>
	</g>
</g>
</svg>
