
<?xml version="1.0" encoding="utf-8"?>
<!-- Generator: Adobe Illustrator 28.0.0, SVG Export Plug-In . SVG Version: 6.00 Build 0)  -->
<svg version="1.1" id="Layer_1" xmlns="http://www.w3.org/2000/svg" xmlns:xlink="http://www.w3.org/1999/xlink" x="0px" y="0px"
	 viewBox="0 0 482 482" style="enable-background:new 0 0 482 482;" xml:space="preserve">
<style type="text/css">
	.st0{fill:#883C95;}
	.st1{fill:#D61868;}
	.st2{fill:#F79832;}
	.st3{fill:#8EC63E;}
	.st4{fill:url(#SVGID_1_);}
	.st5{fill:#4A508F;}
	.st6{fill:url(#SVGID_00000174565682600021393260000003787459480406322568_);}
	.st7{fill:#FFFFFF;}
</style>
<g>
	<path class="st1" d="M238.6,56.1c-51.9,0-95.8,18.7-131.8,55.1c-26.5,26.5-43.5,57.1-50.9,91.5c13.4,10.1,35.5,14.5,60.5,16
		c4.4-24,15.5-45.2,33.8-63.5c24.8-24.8,54.2-36.4,88.3-36.4s63.5,12.1,87.8,36.4c24.3,24.3,36.4,53.7,36.4,87.8
		s-11.7,63.5-36.4,88.3c-20.9,20.9-45.7,32.4-73.9,35.2c1.5,25.6,10.4,42,17.8,51.2l8,8c34.8-7.3,65.3-24.3,92-51.1
		c36.9-36,55.6-79.9,55.6-131.8c0-51.4-18.7-95.3-55.6-131.8C334,74.8,290.5,56.1,238.6,56.1z"/>
	<g>
		<path class="st2" d="M278.4,425.9L56,202.8c13.4,10.1,35.5,14.5,60.5,16c55.4,3.2,123.7-7.3,135.7,1.7c17.9,13.5-1.2,95.2,0,142.4
			c0,1.4,0.3,2.5,0.4,3.8C254,392.2,270.9,416.6,278.4,425.9l-60.2-60.2L116,263.7"/>
	</g>
</g>
</svg>
