<?xml version="1.0" encoding="UTF-8"?>
<svg id="Layer_1" data-name="Layer 1" xmlns="http://www.w3.org/2000/svg" viewBox="0 0 54.05 54.05">
  <defs>
    <style>
      .cls-1 {
        fill: #d51768;
      }

      .cls-1, .cls-2 {
        stroke-width: 0px;
      }

      .cls-2 {
        fill: #ffc0de;
      }
    </style>
  </defs>
  <path class="cls-2" d="m14.54,40.34c2.59-1.98,5.45-3.39,8.67-3.96,5.61-.99,10.75.17,15.37,3.53.2.15.41.29.62.43.12.12.24.26.37.37,2.23,1.89,3.92,4.15,5.13,6.75,5.72-4.96,9.35-12.27,9.35-20.43C54.05,12.1,41.95,0,27.03,0S0,12.1,0,27.03c0,8.05,3.53,15.28,9.11,20.23.29-.61.61-1.2.97-1.79,1.2-1.97,2.75-3.61,4.46-5.13Z"/>
  <path class="cls-1" d="m44.71,47.46c-1.21-2.6-2.91-4.85-5.13-6.75-.13-.11-.25-.25-.37-.37-.21-.14-.42-.28-.62-.43-4.62-3.36-9.75-4.53-15.37-3.53-3.23.57-6.09,1.98-8.67,3.96-1.71,1.52-3.27,3.16-4.46,5.13-.35.58-.68,1.18-.97,1.79,4.77,4.23,11.04,6.8,17.91,6.8s12.94-2.49,17.68-6.6Z"/>
  <path class="cls-1" d="m26.79,32.96c5.17.25,10.16-4.37,10.51-9.55.41-6.08-4.12-10.97-9.67-11.33-6.13-.4-10.75,4.23-11.19,9.55-.49,6.03,4.18,11.23,10.35,11.33Z"/>
</svg>