<?xml version="1.0" encoding="UTF-8"?>
<svg id="Layer_1" data-name="Layer 1" xmlns="http://www.w3.org/2000/svg" viewBox="0 0 500 500">
  <defs>
    <style>
      .cls-1 {
        fill: #575d68;
      }

      .cls-1, .cls-2, .cls-3, .cls-4, .cls-5, .cls-6, .cls-7, .cls-8, .cls-9, .cls-10, .cls-11 {
        stroke-width: 0px;
      }

      .cls-2 {
        fill: #c6ccdc;
      }

      .cls-3 {
        fill: #d74301;
      }

      .cls-4 {
        fill: #aeb4c1;
      }

      .cls-5 {
        fill: #adb3c0;
      }

      .cls-6 {
        fill: #9ea4ad;
      }

      .cls-7 {
        fill: #e8ebf3;
      }

      .cls-8 {
        fill: #e74d01;
      }

      .cls-9 {
        fill: #fefdfd;
      }

      .cls-10 {
        fill: #fefcfb;
      }

      .cls-11 {
        fill: #eaf1fe;
      }
    </style>
  </defs>
  <path class="cls-3" d="m252.21,4.51c.45.11,9.65.28,10.35.45-.36.31-.68.82-1.08.89-14.81,2.37-28.64,7.4-41.45,15.21-19.84,12.1-35.07,28.56-45.26,49.35-6.76,13.79-10.32,28.51-11.49,44.03-1.08,14.24.64,27.93,4.63,41.35,6.56,22.04,18.47,40.74,36.2,55.68,9.59,8.08,19.99,14.62,31.51,19.61,8.69,3.76,18.01,5.14,26.87,8.16-50.43,3.73-88.88-16.12-115.09-59.18-11.5-18.9-15.59-40.01-15.55-61.98.97-7.43,1.93-14.86,2.9-22.29,4.36-16.31,10.89-31.6,21.33-45.02,19.81-25.45,45.7-40.6,77.57-45.56,1.01-.16,1.45-.25,3.15-.54,8.68-.33,6.77-.16,15.41-.16Z"/>
  <path class="cls-7" d="m193.46,414.36c-42.7-.01-85.39-.09-128.09,0-18.75.04-34.55-14.6-35.21-34.36-.62-18.69-.09-37.41-.06-56.12,1.76.06,3.52.16,5.27.16,143.08,0,286.16,0,429.25,0,1.76,0,3.52-.1,5.27-.16.03,18.71.58,37.43-.07,56.12-.65,18.51-15.35,34.45-35.22,34.38-42.69-.14-85.38-.02-128.07-.01-37.69,0-75.38,0-113.06,0Zm57.43-65.27c-9.06-.21-16.36,6.59-16.14,15.04.22,8.45,7.23,14.78,16.13,14.56,7.88-.25,14.47-6.99,14.47-14.8,0-7.81-6.58-14.54-14.46-14.8Z"/>
  <path class="cls-8" d="m262.49,239.25c-8.86-3.03-18.18-4.4-26.87-8.16-11.52-4.99-21.92-11.53-31.51-19.61-17.73-14.94-29.64-33.63-36.2-55.68-3.99-13.43-5.71-27.11-4.63-41.35,1.17-15.52,4.73-30.24,11.49-44.03,10.19-20.79,25.42-37.25,45.26-49.35,12.82-7.81,26.64-12.84,41.45-15.21.4-.06.72-.58,1.08-.89,36.43,3.77,64.52,21.51,85.38,51.21,8.44,12.02,13.67,25.49,17.42,39.59.96,7.45,1.92,14.91,2.89,22.36.04,6.88-.13,13.78-1.25,20.55-6.17,37.48-25.33,66.29-58.12,85.69-14.28,8.45-29.71,13.7-46.39,14.87Zm-31.08-143.84s-.03,0-.05,0c0,14.24-.07,28.49.02,42.73.08,11.9,7.71,19.91,18.7,19.87,10.77-.04,18.46-7.97,18.51-19.58.11-28.49.04-56.98.03-85.47,0-3.22-.4-6.36-1.88-9.31-3.74-7.44-12-11.65-19.93-10.09-9.03,1.77-15.16,8.44-15.32,17.68-.27,14.72-.07,29.45-.07,44.17Zm38.61,100.45c-.13-11.06-9.3-19.92-20.44-19.76-10.84.16-19.71,9.24-19.61,20.09.09,10.8,9.13,19.77,19.95,19.82,11,.04,20.23-9.21,20.1-20.15Z"/>
  <path class="cls-1" d="m368.24,118.13c-.96-7.45-1.92-14.91-2.89-22.36,21.76,0,43.51-.02,65.26.01,24.63.03,39.3,14.78,39.3,39.5,0,62.86-.02,125.73-.03,188.59-1.76.05-3.52.16-5.27.16-143.08,0-286.16,0-429.25,0-1.76,0-3.52-.1-5.27-.16,0-63.37-.04-126.73-.02-190.1,0-22.69,15.09-37.85,37.94-37.97,22.24-.12,44.48-.02,66.73-.01-.97,7.43-1.93,14.86-2.9,22.29-19.37.01-38.74-.06-58.11.06-14.13.09-22.52,8.71-22.53,22.88-.01,53.31.05,106.62-.11,159.93-.01,4.24,1.07,5.3,5.29,5.3,129.03-.12,258.06-.12,387.09.02,4.64,0,5.4-1.52,5.39-5.68-.13-52.99-.08-105.98-.09-158.97,0-15.05-8.32-23.44-23.39-23.48-19.05-.05-38.1,0-57.15,0Z"/>
  <path class="cls-4" d="m193.46,414.36c37.69,0,75.38,0,113.06,0,4.24,27.18,14.68,51.66,31.98,73.13,1.1,1.37,2.32,2.63,3.43,3.99.97,1.18,2.56,1.94,2.77,4.36-30.98,0-61.85,0-92.73,0-.22-.59-.31-1.27-.67-1.76-13.72-18.86-27.28-37.84-41.28-56.48-5.41-7.2-9.8-15.22-16.61-21.34.01-.63.02-1.26.04-1.89Z"/>
  <path class="cls-2" d="m193.43,416.26c6.8,6.12,11.2,14.14,16.61,21.34,14,18.65,27.56,37.62,41.28,56.48.36.49.45,1.17.67,1.76-32.08,0-64.16,0-97.29,0,3.76-4.8,7.1-8.92,10.29-13.16,14.57-19.32,23.82-40.91,27.5-64.86.09-.56.61-1.05.94-1.57Z"/>
  <path class="cls-11" d="m368.24,118.13c19.05,0,38.1-.05,57.15,0,15.07.04,23.39,8.43,23.39,23.48,0,52.99-.04,105.98.09,158.97.01,4.16-.74,5.69-5.39,5.68-129.03-.14-258.06-.13-387.09-.02-4.22,0-5.31-1.05-5.29-5.3.15-53.31.09-106.62.11-159.93,0-14.17,8.4-22.79,22.53-22.88,19.37-.12,38.74-.05,58.11-.06-.03,21.97,4.05,43.08,15.55,61.98,26.21,43.06,64.66,62.91,115.09,59.18,16.67-1.18,32.11-6.43,46.39-14.87,32.79-19.4,51.95-48.21,58.12-85.69,1.11-6.77,1.29-13.67,1.25-20.55Z"/>
  <path class="cls-5" d="m250.9,349.09c7.89.26,14.47,7,14.46,14.8,0,7.81-6.59,14.55-14.47,14.8-.5-.38-.94-.87-1.5-1.12-5.94-2.64-9.09-6.91-9.09-13.68,0-6.77,3.15-11.05,9.09-13.68.56-.25,1-.74,1.5-1.12Z"/>
  <path class="cls-6" d="m250.9,349.09c-.5.38-.94.87-1.5,1.12-5.94,2.63-9.09,6.91-9.09,13.68,0,6.77,3.14,11.05,9.09,13.68.56.25,1,.74,1.5,1.12-8.91.21-15.91-6.11-16.13-14.57-.22-8.45,7.08-15.25,16.14-15.04Z"/>
  <path class="cls-9" d="m231.41,95.41c0-14.72-.2-29.45.07-44.17.17-9.24,6.3-15.91,15.32-17.68,7.94-1.55,16.19,2.65,19.93,10.09,1.48,2.95,1.88,6.09,1.88,9.31,0,28.49.08,56.98-.03,85.47-.04,11.61-7.74,19.54-18.51,19.58-10.99.04-18.62-7.96-18.7-19.87-.09-14.24-.02-28.49-.02-42.73.02,0,.03,0,.05,0Z"/>
  <path class="cls-10" d="m270.02,195.86c.13,10.94-9.1,20.2-20.1,20.15-10.82-.04-19.86-9.02-19.95-19.82-.09-10.85,8.77-19.93,19.61-20.09,11.14-.16,20.31,8.7,20.44,19.76Z"/>
</svg>