<?xml version="1.0" encoding="UTF-8"?>
<svg id="Layer_1" data-name="Layer 1" xmlns="http://www.w3.org/2000/svg" viewBox="0 0 441.6 441.6">
  <defs>
    <style>
      .cls-1 {
        fill: #fff;
      }

      .cls-1, .cls-2 {
        stroke-width: 0px;
      }

      .cls-2 {
        fill: #ec1d23;
      }
    </style>
  </defs>
  <path class="cls-2" d="m383.83,171.64c0,24.35-.53,48.71.14,73.03.83,29.97-11.36,54.58-29.85,76.74-24.44,29.29-54.91,51.18-87.79,69.92-12.48,7.12-25.1,14.06-38.04,20.28-3.74,1.79-9.64,2.47-13.18.78-46.43-22.12-89.89-48.75-124.72-87.39-13.89-15.41-25.25-32.66-29.77-53.35-1.78-8.15-2.82-16.63-2.86-24.96-.25-52.45-.14-104.91-.12-157.36,0-11.81,1.74-14.15,12.95-17.51,47.68-14.28,95.34-28.64,143.1-42.64,4.36-1.28,9.74-1.27,14.1,0,48.2,14.09,96.29,28.53,144.4,42.91,9.26,2.77,11.61,5.96,11.62,15.87.04,27.89.01,55.77.01,83.66Zm-214.19,13.33c-1.85.43-3.53.84-5.22,1.22-12.43,2.86-20.38,11.57-20.62,24.28-.4,21.02-.46,42.06.07,63.07.4,15.74,10.7,25.29,26.48,25.37,31.2.16,62.39.16,93.59,0,16.92-.09,26.66-10.09,26.74-27.04.08-17.71-.56-35.43.18-53.11.79-19.02-5.71-31.03-25.5-33.51-.17-.02-.3-.31-1.25-1.33,0-6.36.09-13.63-.02-20.88-.22-14.9-5.33-27.75-16.9-37.43-15.23-12.75-32.61-15.1-50.29-6.88-17.95,8.35-27.09,23.44-27.24,43.53-.06,7.48,0,14.95,0,22.71Z"/>
  <path class="cls-1" d="m169.64,184.97c0-7.76-.05-15.23,0-22.71.15-20.09,9.29-35.18,27.24-43.53,17.68-8.22,35.06-5.86,50.29,6.88,11.56,9.68,16.67,22.53,16.9,37.43.11,7.26.02,14.52.02,20.88.95,1.02,1.08,1.31,1.25,1.33,19.79,2.48,26.29,14.48,25.5,33.51-.73,17.68-.09,35.4-.18,53.11-.08,16.95-9.82,26.95-26.74,27.04-31.2.16-62.39.16-93.59,0-15.78-.08-26.08-9.63-26.48-25.37-.53-21.01-.46-42.05-.07-63.07.24-12.71,8.19-21.42,20.62-24.28,1.69-.39,3.37-.79,5.22-1.22Zm76.36.69c-.46-9.73-.58-18.35-1.35-26.91-1.33-14.92-13.19-25.61-27.95-25.67-14.41-.05-26.87,11.09-27.94,25.82-.56,7.68.05,15.47.55,23.18.08,1.26,2.29,3.4,3.54,3.42,17.43.23,34.85.15,53.14.15Zm-28.86,75.74c9.12.1,16.56-7.03,16.73-16.04.18-9.55-6.92-16.88-16.46-17-9.43-.12-16.69,7.18-16.64,16.74.04,9.28,6.99,16.19,16.37,16.29Z"/>
  <path class="cls-2" d="m246,185.66c-18.29,0-35.72.07-53.14-.15-1.25-.02-3.46-2.16-3.54-3.42-.49-7.71-1.1-15.5-.55-23.18,1.07-14.73,13.52-25.87,27.94-25.82,14.75.06,26.61,10.75,27.95,25.67.77,8.56.88,17.17,1.35,26.91Z"/>
  <path class="cls-2" d="m217.14,261.41c-9.38-.1-16.33-7.01-16.37-16.29-.05-9.56,7.21-16.86,16.64-16.74,9.54.12,16.64,7.45,16.46,17-.17,9.01-7.61,16.14-16.73,16.04Z"/>
</svg>