<?xml version="1.0" encoding="UTF-8"?>
<svg id="Layer_1" data-name="Layer 1" xmlns="http://www.w3.org/2000/svg" viewBox="0 0 441.6 441.6">
  <defs>
    <style>
      .cls-1 {
        fill: #2f333d;
      }

      .cls-1, .cls-2 {
        stroke-width: 0px;
      }

      .cls-2 {
        fill: #afb1b5;
      }
    </style>
  </defs>
  <path class="cls-1" d="m190.54,197.92c-.87,1.66-1.54,3.35-2.55,4.8-1.38,1.98-.89,3.03,1,4.41,16.06,11.77,32.03,23.66,48.03,35.52,23.68,17.56,47.36,35.13,71.05,52.68.97.72,1.82,1.49,2.42,2.58,18.07,32.3,35.43,64.94,47.8,99.97,2.46,6.98,4.41,14.1,6.07,21.32.65,2.82-.16,3.16-2.68,3.15-37.33-.07-74.66-.05-111.99-.05-57.68,0-115.37-.03-173.05.08-3.15,0-4.2-.79-4.6-3.92-2.23-17.43-3.51-34.88-1.22-52.38,2.22-16.96,7.35-33.09,14.73-48.48,10.66-22.26,25.4-41.76,41.4-60.38,10.64-12.39,21.79-24.3,33.09-36.09,7.81-8.15,16.69-14.91,25.84-21.38,1.15-.81,2.42-1.44,3.65-2.12.13-.07.38.09,1.02.27Z"/>
  <path class="cls-1" d="m197.16,125.07c-2.69-1.84-3.03-4.66-3.36-7.61-1.95-17.39-3.96-34.77-6.05-52.14-.34-2.85,1.43-4.42,3-6.15,6.22-6.83,13.83-11.87,21.79-16.37,18.59-10.51,38.1-18.65,59.22-22.57,12.92-2.39,25.54-.29,38.06,2.66,9.2,2.17,18.21,4.96,26.38,9.9,5.3,3.2,5.52,3.8,3.49,9.67-.43,1.26-.23,1.78.86,2.23.3.12.54.35.83.52,8.23,4.84,12.76,11.37,10.9,21.51-1.31,7.14-2.15,14.37-3.82,21.45-.21.91-.57,1.78-1.08,3.32-1.94-10.93-3.78-21.2-5.58-31.47-.42-2.41-.98-4.63-3.38-5.97-3.67-2.05-4.57-1.93-7.27,1.37-.89,1.09-1.91,2.08-2.82,3.15-2.74,3.23-5.96,4.04-10.16,2.98-9.47-2.4-19.04-4.42-28.57-6.55-2.82-.63-5.68-1.09-8.52-1.62-4-2.05-8.49-2.32-12.73-3.53-2.38-.68-4.78-1.5-7.35-1.11-13.84,2.1-27.67,4.27-41.53,6.22-2.5.35-2.69,1.41-2.37,3.41,2.02,12.77,3.95,25.56,6.03,38.32.29,1.79-.08,2.71-1.62,3.71-4.36,2.84-8.55,5.94-12.85,8.88-1.47,1.01-2.19,1.95-1.65,3.98.99,3.77,1.51,7.67,2.22,11.52.25,1.32.66,2.4,2.12,3,13.25,5.44,26.47,10.94,39.7,16.43,2.19.91,4.71,3.1,4.99-1.74.04-.79,1.09-1.57,1.75-2.28,2.1-2.27,4.99-1.72,7.63-2.08h6.18c.23-1.62-1.33-1.61-1.92-2.41-.57-.78-1.58-1.36-.27-2.33.33-.25.76-.72.4-1.09-2.8-2.86.47-3.79,1.8-4.77,8.89-6.6,18.99-5.63,27.76.7,1.05.75,1.27,1.46.53,2.66-.95,1.54-1.67.27-2.29-.1-5.99-3.57-5.98-3.59-9.07-3.64.49,1.07,2.24,2.05.27,3.23-1.4.84-1.11,2.35-.05,2.97,2.14,1.26.91,2.38.03,3.9,3.65-.52,6.33-2.43,8.97-4.36.97-.71,1.45-.82,2.25.26.85,1.14.55,1.65-.48,2.29-.89.56-1.68,1.27-2.73,2.07,2.49.95,4.72-.07,6.92.21,4.47.57,6.48,2.19,7.31,6.53.27,1.4.42,1.8,1.98,1.36,3.03-.86,6.16-1.29,9.33-1.05,1.25.09,2.06-.05,2.1-1.63.12-4.3,2.48-6.51,7-6.68-.52-1.54-1.37-2.42-.85-4.43,1.11-4.28.62-4.79,4.96-7,9.56-4.88,17.55-2.35,25,2.9,2.14,1.51-.15,2.24-.65,3.32-3.3-2.48-6.6-4.67-11.06-5.23.98,1.48,3.28,2.55.5,4.19-.9.53-.73,2.31.39,2.79,1.95.83,1.02,1.94.49,3.26,3.06-.03,5.15-1.9,7.49-3.09,1.02-.52,1.74-2.3,3.18-.6.88,1.05.83,1.18-1.92,3.77,2.21,0,3.85-.06,5.49.01,2.85.12,4.32,1.72,6,4.1,2.07,2.93,1.94,4.87.34,7.78-.83,1.51-.18,3.84-.16,5.8.06,9.32-3.92,16.43-12.15,20.73-8.57,4.48-16.97,3.68-24.78-2.13-1.12-.83-2.22-1.2-3.6-1.09-3.05.26-6.06.8-8.93,1.77-2.11.71-2.87.04-3.53-1.9-.79-2.3.86-2.26,2.12-2.59,2.71-.72,5.44-1.35,8.41-2.07-2.84-4.8-3.64-10-3.5-15.4.04-1.42-.7-1.87-2-1.94-3.52-.18-6.9.54-10.28,1.42-1.51.39-1.23,1.57-1.34,2.6-1,9.42-5.18,16.87-13.41,21.87-7.55,4.58-15.5,5.1-23.79,2.49-10.87-4.71-17.28-12.72-18.22-24.73-.11-1.46-.94-2.05-2.09-2.56-18.8-8.39-38.7-14.33-56.39-25.21Zm82.3,1.94c-.87.31-1.79.54-2.61.94-2.15,1.04-5.18,2.08-5.32,4.32-.15,2.46,3.13,3.08,5.15,4.21.47.26.9.62,1.39.8.37.13.9.18,1.22,0,.73-.4.18-.87-.07-1.31-1.68-2.93-1.47-5.76.24-8.96Zm61.52-.7c-3.85.5-6.07,2.32-8.22,4.26-.57.51-1.21,1.14-.29,1.85,2.34,1.82,4.52,4.01,8.13,3.58-2.07-3.16-2.04-6.18.39-9.69Z"/>
  <path class="cls-2" d="m197.16,125.07c17.69,10.88,37.59,16.82,56.39,25.21,1.15.51,1.97,1.1,2.09,2.56.94,12.01,7.35,20.02,18.22,24.73,2.42,4.88-.34,9.45-.89,14.14-.59,5.11-.76,10.21.91,15.13,1.88,5.57,6.33,9.27,10.49,13.05,4.89,4.45,10.09,8.55,15.4,12.51,1.77,1.32,3.51,1.89,5.68,1.86,10.85-.15,21.71.13,32.55-.74,4.61-.37,8.65-1.84,11.91-6.56.87,5.38.31,9.89-1.63,13.87-1,2.06-4.49,1.22-6.62,2.38-.83-.81-1.85-.5-2.79-.4-11.05,1.21-22.1,1.69-33.19.52-7.38-.78-14.78-1.8-21.37-5.35-21.27-11.45-41.88-23.99-61.4-38.28-1.52-1.12-2.3-2.39-2.66-4.23-1.7-8.59-3.53-17.16-5.32-25.72-2.58.4-3.17,1.42-2.6,3.83,2.1,8.88,3.95,17.82,5.82,26.75.35,1.69,1.05,2.92,2.44,4.02,21.5,17.1,43,34.22,64.42,51.43,5.05,4.06,10.44,7.72,14.95,12.43-1.65.35-2.61-.93-3.73-1.68-24.66-16.32-49.28-32.69-73.93-49.03-9.51-6.31-19.02-12.61-28.6-18.81-1.91-1.24-2.32-2.22-1.23-4.4,3.66-7.28,7-14.72,10.57-22.05,1-2.05,1.08-3.24-1.14-4.73-9.96-6.68-15.18-15.92-14.18-28.18.3-3.7,1-7.27,3.07-10.5,1.54-2.41,3.51-3.76,6.37-3.78Z"/>
  <path class="cls-2" d="m265.42,138.13c-2.64.36-5.53-.19-7.63,2.08-.66.71-1.71,1.49-1.75,2.28-.27,4.85-2.79,2.66-4.99,1.74-13.23-5.5-26.45-11-39.7-16.43-1.46-.6-1.87-1.68-2.12-3-.71-3.85-1.23-7.74-2.22-11.52-.53-2.04.18-2.98,1.65-3.98,4.3-2.94,8.49-6.04,12.85-8.88,1.54-1,1.91-1.92,1.62-3.71-2.08-12.76-4.01-25.55-6.03-38.32-.32-2.01-.13-3.06,2.37-3.41,13.86-1.95,27.69-4.11,41.53-6.22,2.57-.39,4.96.44,7.35,1.11,4.24,1.2,8.73,1.48,12.73,3.53-.22,1.76-1.63,1.03-2.56,1.17-5.35.85-10.15,2.77-14.47,6.2-3.53,2.81-4.18,6.21-3.78,10.39.98,10.36,1.67,20.75,2.62,31.11.28,3.07.06,6.24,1.27,9.19-.16.82-1.22,1.59-.11,2.47,0,8.09.75,16.14,1.37,24.2Z"/>
  <path class="cls-1" d="m299.95,268.21c-4.52-4.7-9.9-8.37-14.95-12.43-21.42-17.21-42.91-34.33-64.42-51.43-1.38-1.1-2.08-2.33-2.44-4.02-1.87-8.93-3.72-17.87-5.82-26.75-.57-2.41.01-3.43,2.6-3.83,1.78,8.56,3.61,17.13,5.32,25.72.36,1.84,1.14,3.11,2.66,4.23,19.51,14.29,40.13,26.83,61.4,38.28,6.59,3.55,13.99,4.57,21.37,5.35,11.09,1.17,22.14.69,33.19-.52.94-.1,1.96-.41,2.79.4-7.83,3.19-15.63,6.45-23.51,9.51-2.12.83-3.35,1.91-3.9,4.21-1.42,5.98-3.1,11.89-4.73,18.05-3.62-1.87-6.43-4.55-9.56-6.78Z"/>
  <path class="cls-1" d="m328.32,186.81c3.58-.14,7.96.45,12.18,2.05,1.06.4,2.17.96,1.15,2.35-.7.95-.45,3.03-2.79,2.12-8.11-3.16-16.23-1.87-24.32.16-3.47.87-6.93,1.84-10.11,3.48-2.45,1.26-2.33-.95-3.1-1.99-1.13-1.52-.1-1.9,1.15-2.42,7.99-3.3,16.22-5.52,25.84-5.75Z"/>
  <path class="cls-1" d="m264.05,113.93c-1.11-.87-.05-1.65.11-2.47,5.71-6.1,12.99-7.4,20.83-6.5,6.37.74,11.97,3.57,17.2,7.2,1.31.91,1.16,1.71.2,2.87-.89,1.07-1.37,2.09-3.04.91-4.09-2.9-8.52-5.11-13.54-6.04-6.72-1.24-12.97-.66-18.06,4.45-1.59,1.6-2.43-.65-3.69-.44Z"/>
  <path class="cls-1" d="m345.09,112.76c5.39.2,10.21.9,14.97,2.04,1.44.34,2.46.64,1.85,2.52-.48,1.49-.84,2.49-2.82,1.97-7.33-1.92-14.73-2.4-22.23-.97-2.57.49-5.23.93-7.42,2.24-2.36,1.41-2.82-.28-3.61-1.56-1.25-2.02.81-2.09,1.76-2.57,5.65-2.88,11.84-3.21,17.51-3.66Z"/>
</svg>